<svg height="512" viewBox="0 0 64 64" width="512" xmlns="http://www.w3.org/2000/svg"><g id="Storage"><path d="m34 51h-4-20-7v6h5 9 31 8 5v-6h-7z" fill="#754c29"/><path d="m8 57h9v4h-9z" fill="#603913"/><path d="m48 57h8v4h-8z" fill="#603913"/><path d="m34 51h20a2 2 0 0 0 2-2v-20a2 2 0 0 0 -2-2h-20a2 2 0 0 0 -2 2v20a2 2 0 0 0 2 2z" fill="#ffb655"/><path d="m44 37 3 2v-12h-6v12z" fill="#8b5e3c"/><path d="m32 49v-20a2 2 0 0 0 -2-2h-20a2 2 0 0 0 -2 2v20a2 2 0 0 0 2 2h20a2 2 0 0 0 2-2z" fill="#ffa733"/><path d="m17 39 3-2 3 2v-12h-6z" fill="#8b5e3c"/><path d="m23 27h7a2 2 0 0 0 2-2v-20a2 2 0 0 0 -2-2h-20a2 2 0 0 0 -2 2v20a2 2 0 0 0 2 2z" fill="#ffdaaa"/><path d="m20 13 3 2v-12h-6v12z" fill="#8b5e3c"/><path d="m41 3v12h-3l6 8 6-8h-3v-12z" fill="#d80027"/><path d="m30 3v16a4 4 0 0 1 -4 4h-18v2a2 2 0 0 0 2 2h20a2 2 0 0 0 2-2v-20a2 2 0 0 0 -2-2z" fill="#ffc477"/><path d="m54 27v16a4 4 0 0 1 -4 4h-18v2a2 2 0 0 0 2 2h20a2 2 0 0 0 2-2v-20a2 2 0 0 0 -2-2z" fill="#ffa733"/><path d="m30 27v16a4 4 0 0 1 -4 4h-18v2a2 2 0 0 0 2 2h20a2 2 0 0 0 2-2v-20a2 2 0 0 0 -2-2z" fill="#ff9811"/></g></svg>