<svg height="512pt" viewBox="0 -29 512.00123 512" width="512pt" xmlns="http://www.w3.org/2000/svg"><path d="m50.804688 419.484375c5.238281 0 9.496093 4.261719 9.496093 9.496094 0 5.238281-4.257812 9.5-9.496093 9.5-5.234376 0-9.496094-4.261719-9.496094-9.5 0-5.234375 4.257812-9.496094 9.496094-9.496094m0-15.941406c-14.050782 0-25.4375 11.390625-25.4375 25.4375 0 14.050781 11.386718 25.441406 25.4375 25.441406 14.050781 0 25.4375-11.390625 25.4375-25.441406 0-14.046875-11.386719-25.4375-25.4375-25.4375zm0 0" fill="#373c41"/><path d="m144.09375 419.484375c5.238281 0 9.496094 4.261719 9.496094 9.496094 0 5.238281-4.257813 9.5-9.496094 9.5-5.234375 0-9.496094-4.261719-9.496094-9.5 0-5.234375 4.257813-9.496094 9.496094-9.496094m0-15.941406c-14.050781 0-25.4375 11.390625-25.4375 25.4375 0 14.050781 11.386719 25.441406 25.4375 25.441406s25.4375-11.390625 25.4375-25.441406c0-14.046875-11.386719-25.4375-25.4375-25.4375zm0 0" fill="#373c41"/><path d="m245.3125 183.609375h-39.621094c-6.578125 0-12.167968 4.8125-13.140625 11.320313l-29.488281 197.457031h-149.777344c-7.335937-.003907-13.285156 5.945312-13.285156 13.28125 0 7.335937 5.949219 13.285156 13.285156 13.285156 167.480469.003906 161.808594.136719 163.78125-.25 5.394532-1.058594 9.738282-5.429687 10.582032-11.074219l29.492187-197.453125h28.171875c7.335938 0 13.285156-5.945312 13.285156-13.285156 0-7.335937-5.949218-13.28125-13.285156-13.28125zm0 0" fill="#9bb9c3"/><path d="m139.21875 392.882812h-109.992188c-7.691406 0-13.925781-6.234374-13.925781-13.925781v-91.707031c0-7.691406 6.234375-13.925781 13.925781-13.925781h109.992188c7.691406 0 13.929688 6.234375 13.929688 13.925781v91.707031c-.003907 7.691407-6.238282 13.925781-13.929688 13.925781zm0 0" fill="#965028"/><path d="m136.554688 356.546875-15.769532-15.769531c-1.175781-1.175782-3.082031-1.175782-4.257812 0l-15.773438 15.769531c-1.894531 1.898437-.550781 5.140625 2.132813 5.140625h.761719c1.664062 0 3.015624 1.347656 3.015624 3.011719v25.171875c0 1.664062 1.347657 3.011718 3.011719 3.011718h17.960938c1.664062 0 3.011719-1.347656 3.011719-3.011718v-25.171875c0-1.664063 1.347656-3.011719 3.011718-3.011719h.765625c2.683594 0 4.027344-3.242188 2.128907-5.140625zm0 0" fill="#fa503c"/><path d="m153.558594 273.324219h-109.992188c-7.691406 0-13.929687-6.234375-13.929687-13.925781v-91.707032c0-7.691406 6.238281-13.925781 13.929687-13.925781h109.992188c7.691406 0 13.925781 6.234375 13.925781 13.925781v91.707032c0 7.691406-6.234375 13.925781-13.925781 13.925781zm0 0" fill="#ba6746"/><path d="m150.894531 236.988281-15.769531-15.769531c-1.175781-1.175781-3.085938-1.175781-4.261719 0l-15.769531 15.769531c-1.898438 1.898438-.554688 5.140625 2.128906 5.140625h.765625c1.664063 0 3.011719 1.347656 3.011719 3.011719v25.171875c0 1.664062 1.347656 3.011719 3.011719 3.011719h17.964843c1.664063 0 3.011719-1.347657 3.011719-3.011719v-25.171875c0-1.664063 1.347657-3.011719 3.011719-3.011719h.765625c2.683594 0 4.027344-3.242187 2.128906-5.140625zm0 0" fill="#fa503c"/><path d="m488.347656 221.191406-67.882812-24.304687c-2.03125-.726563-3.90625-1.820313-5.542969-3.21875l-70.964844-60.773438c-7.417969-6.351562-8.28125-17.515625-1.929687-24.933593 6.355468-7.421876 17.519531-8.28125 24.9375-1.929688l68.488281 58.652344 64.820313 23.207031c9.195312 3.292969 13.980468 13.414063 10.6875 22.613281-3.289063 9.179688-13.402344 13.984375-22.613282 10.6875zm0 0" fill="#ffb69e"/><path d="m274.074219 452.363281c-11.074219-5.132812-15.890625-18.277343-10.753907-29.351562l42.386719-91.414063-3.832031-76.851562c-.609375-12.195313 8.785156-22.570313 20.976562-23.179688 12.195313-.613281 22.574219 8.785156 23.179688 20.976563l4.105469 82.304687c.175781 3.578125-.519531 7.148438-2.023438 10.398438l-44.683593 96.363281c-5.132813 11.074219-18.277344 15.890625-29.355469 10.753906zm0 0" fill="#414b82"/><path d="m388.648438 434.230469-9.140626-104.703125-27.875-82.894532c-3.894531-11.574218 2.332032-24.109374 13.90625-28 11.570313-3.890624 24.109376 2.332032 28 13.90625l28.714844 85.394532c.558594 1.660156.917969 3.382812 1.070313 5.125l9.371093 107.328125c1.0625 12.164062-7.9375 22.882812-20.101562 23.945312-12.078125 1.0625-22.875-7.859375-23.945312-20.101562zm0 0" fill="#414b82"/><path d="m301.9375 254.21875 101.40625 6.777344 9.191406-137.519532c.992188-14.800781-10.207031-27.605468-25.007812-28.59375l-47.800782-3.195312c-14.800781-.992188-27.605468 10.207031-28.59375 25.011719zm0 0" fill="#64afff"/><path d="m405.714844 39.765625c0 21.964844-17.800782 39.769531-39.765625 39.769531-21.960938 0-39.765625-17.804687-39.765625-39.769531 0-21.960937 17.804687-39.765625 39.765625-39.765625 21.964843 0 39.765625 17.804688 39.765625 39.765625zm0 0" fill="#ffb69e"/><path d="m234.140625 219.671875c-8.210937-5.289063-10.578125-16.234375-5.289063-24.445313l39.957032-62.007812c2.207031-3.421875 5.527344-5.980469 9.398437-7.238281l71.785157-23.335938c9.292968-3.019531 19.269531 2.0625 22.289062 11.351563 3.019531 9.289062-2.0625 19.265625-11.351562 22.285156l-65.796876 21.390625-36.546874 56.714844c-5.265626 8.167969-16.195313 10.601562-24.445313 5.285156zm0 0" fill="#ffb69e"/><path d="m372.277344 113.996094c-3.015625-9.289063-12.992188-14.375-22.285156-11.351563l-36.601563 11.898438 12.789063 33.035156 34.746093-11.296875c9.292969-3.019531 14.375-12.996094 11.351563-22.285156zm0 0" fill="#4699f2"/></svg>