<svg height="512pt" viewBox="0 -10 512.001 512" width="512pt" xmlns="http://www.w3.org/2000/svg"><path d="m385.332031 297.402344v-195.769532h-129.445312v195.769532zm0 0" fill="#ffda52"/><path d="m441.789062 219.234375-17.421874-92.980469c-4.855469-25.921875-27.519532-44.730468-53.890626-44.730468h-20.191406c-3.886718-.675782-1.199218-.242188-77.375-.375-27.546875 0-50.324218 20.679687-52.972656 48.101562l-8.367188 86.617188c-1.414062 14.621093 10.058594 27.347656 24.859376 27.347656 12.695312 0 23.554687-9.652344 24.800781-22.546875l8.371093-86.617188c.164063-1.714843 1.589844-3.007812 3.308594-3.007812 45.757813.53125 40.472656.277343 97.566406.375 2.375 0 4.414063 1.691406 4.851563 4.023437l11.886719 63.441406h-70.796875c-13.777344 0-24.945313 11.171876-24.945313 24.949219 0 13.777344 11.167969 24.945313 24.945313 24.945313h100.851562c15.601563 0 27.394531-14.191406 24.519531-29.542969zm0 0" fill="#ba6746"/><path d="m381.207031 166.816406h50.761719l-7.601562-40.5625c-4.855469-25.921875-27.519532-44.730468-53.890626-44.730468h-20.191406c-3.886718-.675782-1.195312-.242188-77.371094-.375-27.550781 0-50.324218 20.679687-52.976562 48.101562l-8.367188 86.617188c-1.414062 14.621093 10.0625 27.347656 24.859376 27.347656 12.695312 0 23.554687-9.652344 24.800781-22.546875zm0 0" fill="#ffda52"/><path d="m236.363281 448.492188-20.164062-130.410157c-1.582031-10.21875 2.742187-20.457031 11.167969-26.449219l47.394531-33.710937c12.300781-8.75 29.367187-5.867187 38.113281 6.433594 8.75 12.300781 5.871094 29.367187-6.429688 38.113281l-33.648437 23.929688 17.589844 113.742187c2.308593 14.917969-7.914063 28.878906-22.832031 31.1875-14.921876 2.308594-28.882813-7.917969-31.191407-22.835937zm0 0" fill="#55696e"/><path d="m369.128906 471.328125c-14.917968-2.308594-25.140625-16.269531-22.835937-31.1875l17.582031-113.675781-40.28125-28.445313c-12.332031-8.707031-15.269531-25.761719-6.5625-38.09375s25.761719-15.265625 38.09375-6.558593l54.113281 38.210937c8.476563 5.984375 12.832031 16.25 11.246094 26.503906l-20.167969 130.410157c-2.308594 14.921874-16.273437 25.140624-31.1875 22.835937zm0 0" fill="#55696e"/><g fill="#ba6746"><path d="m49.15625 491.746094c-11.210938 0-20.296875-9.085938-20.296875-20.292969v-205.523437c0-11.210938 9.085937-20.296876 20.296875-20.296876 11.207031 0 20.292969 9.085938 20.292969 20.296876v205.523437c0 11.207031-9.085938 20.292969-20.292969 20.292969zm0 0"/><path d="m462.847656 491.746094c-11.210937 0-20.296875-9.085938-20.296875-20.292969v-205.523437c0-11.210938 9.085938-20.296876 20.296875-20.296876 11.207032 0 20.292969 9.085938 20.292969 20.296876v205.523437c0 11.207031-9.085937 20.292969-20.292969 20.292969zm0 0"/><path d="m371.234375 50.359375c0 27.8125-22.546875 50.355469-50.359375 50.355469s-50.359375-22.542969-50.359375-50.355469 22.546875-50.359375 50.359375-50.359375 50.359375 22.546875 50.359375 50.359375zm0 0"/><path d="m348.324219 162.257812c-6.164063-12.324218-21.152344-17.3125-33.472657-11.148437l-49.285156 24.664063 1.054688-10.898438h-50.125l-4.929688 50.992188c-.875 9.035156 3.230469 17.832031 10.710938 22.96875 7.507812 5.148437 17.191406 5.789062 25.285156 1.738281l89.617188-44.84375c12.320312-6.167969 17.308593-21.152344 11.144531-33.472657zm0 0"/></g><path d="m486.007812 233.824219c0 4.585937-3.71875 8.300781-8.300781 8.300781h-147.660156c-4.582031 0-8.300781-3.714844-8.300781-8.300781v-88.542969c0-4.585938 3.71875-8.300781 8.300781-8.300781h147.660156c4.582031 0 8.300781 3.714843 8.300781 8.300781zm0 0" fill="#b9cdd2"/><path d="m420.011719 189.554688c0 8.910156-7.226563 16.132812-16.136719 16.132812s-16.132812-7.222656-16.132812-16.132812c0-8.910157 7.222656-16.132813 16.132812-16.132813s16.136719 7.222656 16.136719 16.132813zm0 0" fill="#fff"/><path d="m0 288.101562c0 5.507813 4.464844 9.976563 9.972656 9.976563h492.054688c5.507812 0 9.972656-4.46875 9.972656-9.976563v-36.054687c0-5.507813-4.464844-9.972656-9.972656-9.972656h-492.054688c-5.507812 0-9.972656 4.464843-9.972656 9.972656zm0 0" fill="#e28c71"/><path d="m166.496094 242.140625h-121.660156c-8.507813 0-15.402344-6.898437-15.402344-15.40625v-101.429687c0-8.507813 6.894531-15.402344 15.402344-15.402344h121.660156c8.503906 0 15.402344 6.894531 15.402344 15.402344v101.433593c0 8.503907-6.894532 15.402344-15.402344 15.402344zm0 0" fill="#965028"/><path d="m163.546875 201.949219-17.441406-17.445313c-1.300781-1.300781-3.410157-1.300781-4.710938 0l-17.445312 17.445313c-2.097657 2.097656-.613281 5.6875 2.355469 5.6875h.847656c1.839844 0 3.332031 1.492187 3.332031 3.332031v27.839844c0 1.839844 1.488281 3.332031 3.328125 3.332031h19.871094c1.839844 0 3.332031-1.492187 3.332031-3.332031v-27.839844c0-1.839844 1.492187-3.332031 3.332031-3.332031h.84375c2.96875 0 4.457032-3.589844 2.355469-5.6875zm0 0" fill="#fa503c"/></svg>